<?xml version="1.0" encoding="UTF-8" standalone="no"?>
<!-- Created with Inkscape (http://www.inkscape.org/) -->

<svg
   xmlns:dc="http://purl.org/dc/elements/1.1/"
   xmlns:cc="http://creativecommons.org/ns#"
   xmlns:rdf="http://www.w3.org/1999/02/22-rdf-syntax-ns#"
   xmlns:svg="http://www.w3.org/2000/svg"
   xmlns="http://www.w3.org/2000/svg"
   xmlns:sodipodi="http://sodipodi.sourceforge.net/DTD/sodipodi-0.dtd"
   xmlns:inkscape="http://www.inkscape.org/namespaces/inkscape"
   sodipodi:docname="app_icon.svg"
   inkscape:version="0.48.4 r9939"
   version="1.1"
   id="svg2"
   height="48"
   width="48">
  <sodipodi:namedview
     id="base"
     pagecolor="#ffffff"
     bordercolor="#666666"
     borderopacity="1.0"
     inkscape:pageopacity="0.0"
     inkscape:pageshadow="2"
     inkscape:zoom="1.7784044"
     inkscape:cx="36.473921"
     inkscape:cy="19.306264"
     inkscape:document-units="px"
     inkscape:current-layer="layer1"
     showgrid="false"
     inkscape:window-width="1855"
     inkscape:window-height="1056"
     inkscape:window-x="65"
     inkscape:window-y="24"
     inkscape:window-maximized="1"
     showguides="true"
     inkscape:guide-bbox="true"
     fit-margin-top="0"
     fit-margin-left="0"
     fit-margin-right="0"
     fit-margin-bottom="0">
    <inkscape:grid
       type="xygrid"
       id="grid3006"
       empspacing="5"
       visible="true"
       enabled="true"
       snapvisiblegridlinesonly="true"
       originx="0px"
       originy="4.6203613e-06px" />
  </sodipodi:namedview>
  <defs
     id="defs4">
    <filter
       inkscape:collect="always"
       id="filter20433"
       color-interpolation-filters="sRGB">
      <feGaussianBlur
         inkscape:collect="always"
         stdDeviation="1.8571572"
         id="feGaussianBlur20435" />
    </filter>
    <clipPath
       clipPathUnits="userSpaceOnUse"
       id="clipPath20439">
      <rect
         ry="23.75"
         rx="23.75"
         y="556.36218"
         x="16"
         height="480"
         width="480"
         id="rect20441"
         style="color:#000000;fill:#ff0000;fill-opacity:1;stroke:none;stroke-width:5;marker:none;visibility:visible;display:inline;overflow:visible;enable-background:accumulate" />
    </clipPath>
    <filter
       inkscape:collect="always"
       id="filter20453"
       color-interpolation-filters="sRGB">
      <feGaussianBlur
         inkscape:collect="always"
         stdDeviation="3.6"
         id="feGaussianBlur20455" />
    </filter>
  </defs>
  <metadata
     id="metadata7">
    <rdf:RDF>
      <cc:Work
         rdf:about="">
        <dc:format>image/svg+xml</dc:format>
        <dc:type
           rdf:resource="http://purl.org/dc/dcmitype/StillImage" />
        <dc:title />
      </cc:Work>
    </rdf:RDF>
  </metadata>
  <g
     inkscape:label="Layer 1"
     inkscape:groupmode="layer"
     id="layer1"
     transform="translate(0,-1004.3622)">
    <g
       id="ic_launcher"
       transform="matrix(0.09375,0,0,0.09375,0,953.70323)">
      <rect
         style="opacity:0.7;color:#000000;fill:#000000;fill-opacity:1;stroke:none;stroke-width:5;marker:none;visibility:visible;display:inline;overflow:visible;filter:url(#filter20453);enable-background:accumulate"
         id="rect20443"
         width="480"
         height="480"
         x="16"
         y="562.36218"
         rx="23.75"
         ry="23.75" />
      <rect
         ry="23.75"
         rx="23.75"
         y="556.36218"
         x="16"
         height="480"
         width="480"
         id="rect3007"
         style="color:#000000;fill:#8d5fd3;fill-opacity:1;stroke:none;stroke-width:5;marker:none;visibility:visible;display:inline;overflow:visible;enable-background:accumulate" />
      <path
         clip-path="url(#clipPath20439)"
         inkscape:connector-curvature="0"
         id="path17837"
         d="m 68.568344,610.92468 c -0.44811,0.0174 -0.87525,0.0286 -1.3125,0.0625 -6.55873,0.5085 -11.91139,2.88546 -16.03125,7.0625 -4.65495,4.72011 -7,11.22922 -7,19.5625 l 0,19.84375 c 0,1.04574 0.0518,2.04299 0.125,3.03125 7.4e-4,0.01 -7.4e-4,0.0212 0,0.0312 0.0732,0.97722 0.16756,1.92279 0.3125,2.84375 0.002,0.01 -0.002,0.0213 0,0.0312 0.072,0.45485 0.16046,0.90265 0.25,1.34375 0.002,0.01 -0.002,0.0213 0,0.0312 0.3658,1.79289 0.87571,3.46574 1.53125,5.03125 0.004,0.009 -0.004,0.0225 0,0.0312 0.16157,0.38461 0.35216,0.78538 0.53125,1.15625 0.36621,0.75733 0.7793,1.48744 1.21875,2.1875 0.21973,0.35003 0.44946,0.66426 0.6875,1 0.71795,1.01618 1.48995,1.9587 2.375,2.84375 0.71321,0.71321 1.46347,1.36485 2.25,1.96875 0.39096,0.29949 0.7783,0.57132 1.1875,0.84375 0.0119,0.008 0.0193,0.0233 0.0312,0.0312 0.39776,0.26371 0.8039,0.51161 1.21875,0.75 0.0125,0.007 0.0187,0.024 0.0312,0.0312 l 119.562496,69.03125 -17.53125,0 -6.09375,18.84375 -32.65625,-18.84375 -25.937496,0 0,85.3125 76.343746,44.09375 0,21.09375 -23.25,-13.40625 c -0.14716,-0.0917 -0.28832,-0.19201 -0.4375,-0.28125 l -0.40625,-0.21875 c -0.41551,-0.23954 -0.85048,-0.46679 -1.28125,-0.6875 -0.0626,-0.0321 -0.1246,-0.0621 -0.1875,-0.0937 -0.29866,-0.15068 -0.60036,-0.2958 -0.90625,-0.4375 -0.0848,-0.0391 -0.16466,-0.0865 -0.25,-0.125 -0.29055,-0.13138 -0.57801,-0.2516 -0.875,-0.375 -0.23454,-0.0971 -0.48019,-0.18909 -0.71875,-0.28125 -0.53949,-0.20874 -1.09623,-0.41042 -1.65625,-0.59375 -0.0215,-0.007 -0.041,-0.0243 -0.0625,-0.0312 -0.64082,-0.20834 -1.30113,-0.38728 -1.96875,-0.5625 -0.15692,-0.0412 -0.31035,-0.0856 -0.46875,-0.125 -0.17195,-0.0426 -0.35756,-0.0845 -0.53125,-0.125 -0.68973,-0.16073 -1.40777,-0.31066 -2.125,-0.4375 -0.13289,-0.0235 -0.27242,-0.0402 -0.40625,-0.0625 -0.76754,-0.12795 -1.54517,-0.25398 -2.34375,-0.34375 -0.0924,-0.0104 -0.18847,-0.0214 -0.28125,-0.0312 -1.79618,-0.19078 -3.67318,-0.28124 -5.625,-0.28125 l -32.562496,0 0,85.3125 432.999996,250.00007 19.8125,0 0,-29.25 5.875,0 50.6562,29.25 19.875,0 0,-11.375 16.8438,9.7186 c 3.3397,1.9283 7.498,2.875 12.5,2.875 1.6997,0 3.2613,-0.1512 4.6875,-0.5 l 40.5,23.375 c 2.3438,0.5859 4.0622,0.9609 5.1563,1.1564 1.0917,0.2343 2.5,0.3436 4.2187,0.3436 6.7188,0 11.6015,-1.5155 14.6875,-4.5625 3.0859,-3.0469 5.6093,-6.9061 7.5625,-11.5936 l 10.375,-29.9375 30.75,17.75 c 4.6025,2.6573 10.1633,3.9686 16.6563,3.9686 5.0761,0 9.9218,-0.664 14.5312,-2.0311 4.3614,-1.2936 7.8797,-2.8657 10.5625,-4.7189 l 9.5937,5.5314 19.8126,0 0,-41.7814 c 0.7012,-1.5234 1.7734,-2.6796 3.2187,-3.5 1.4453,-0.8594 3.2969,-1.3124 5.5625,-1.3125 l 6.4375,0.062 1.875,-17.3437 -118,-68.125 8.625,0 0,-7.0313 12.1875,7.0313 19.8438,0 0,-11.375 16.8437,9.7187 c 3.3398,1.9282 7.5292,2.875 12.5313,2.875 4.0621,0 7.3437,-0.9765 9.8437,-2.9687 0.8783,-0.7027 1.6886,-1.482 2.4687,-2.3438 l 7,4.0313 19.5938,0.062 c -1.1329,-2.8906 -2.0079,-5.7657 -2.5938,-8.6563 -0.5466,-2.8906 -0.8126,-6.0156 -0.8124,-9.375 l 0,-23.9062 c -4e-4,-7.2656 -2.4298,-12.875 -7.3126,-16.7813 l -165.1874,-95.37492 0,-10.75 17.9374,10.34375 c 4.1359,2.38778 8.8998,3.5625 14.2813,3.5625 6.8359,0 12.3349,-1.73567 16.4687,-5.21875 1.0752,-0.90516 1.9862,-1.88772 2.7813,-2.96875 l 12.4063,7.15625 40.2812,0 0,-10.71875 -26.5312,-15.3125 0,-5.03125 53.8124,31.0625 39.8126,0 0,-10.71875 -26.0313,-15.03125 0,-1.625 43.0313,24.84375 c 4.1337,2.38778 8.8996,3.5625 14.2812,3.5625 6.8359,0 12.3346,-1.73567 16.4688,-5.21875 4.1322,-3.48306 6.1874,-8.25649 6.1874,-14.34375 0,-5.8919 -1.7644,-10.57939 -5.3124,-14.0625 -1.6291,-1.61197 -3.6235,-3.11474 -5.9688,-4.46875 l -19.7812,-11.40625 c -0.5915,-1.13579 -0.8766,-2.438 -0.875,-3.875 0,-2.60411 0.7538,-4.74343 2.2187,-6.46875 0.082,-0.0983 0.1644,-0.18842 0.25,-0.28125 l 15.4063,8.875 13.375,0 0.094,-0.3125 c 0.1301,-6.57546 -1.8949,-11.81244 -6.0937,-15.71875 -1.1386,-1.0589 -2.3819,-1.97814 -3.7188,-2.75 L 455.19334,614.20593 c -0.182,-0.10912 -0.3767,-0.20884 -0.5625,-0.3125 -0.1267,-0.0708 -0.2465,-0.15048 -0.375,-0.21875 -0.2523,-0.13394 -0.4909,-0.25085 -0.75,-0.375 -0.0618,-0.0297 -0.1253,-0.0646 -0.1875,-0.0937 -0.414,-0.19321 -0.8502,-0.36268 -1.2813,-0.53125 -0.2471,-0.0968 -0.4971,-0.19259 -0.75,-0.28125 -0.3505,-0.12297 -0.7012,-0.23646 -1.0624,-0.34375 -0.1836,-0.0546 -0.3762,-0.10569 -0.5626,-0.15625 -0.1779,-0.0482 -0.3507,-0.11176 -0.5312,-0.15625 -0.0606,-0.015 -0.1266,-0.0167 -0.1875,-0.0312 -0.5039,-0.12069 -1.0077,-0.22005 -1.5313,-0.3125 -0.043,-0.008 -0.0815,-0.0238 -0.125,-0.0312 -0.1326,-0.0227 -0.2721,-0.0415 -0.4062,-0.0625 -0.0399,-0.006 -0.085,0.006 -0.125,0 -0.623,-0.0945 -1.2564,-0.19412 -1.9062,-0.25 -0.2874,-0.0247 -0.5825,-0.0453 -0.875,-0.0625 -0.0614,-0.004 -0.126,0.003 -0.1876,0 -0.6063,-0.0319 -1.2149,-0.0625 -1.8437,-0.0625 -6.51046,7e-5 -11.86329,1.82168 -16.0625,5.5 -0.26245,0.22787 -0.50385,0.45104 -0.75,0.6875 -0.18145,0.17453 -0.35881,0.35209 -0.53125,0.53125 -0.0611,0.0633 -0.12754,0.12358 -0.1875,0.1875 -0.33962,0.36209 -0.66479,0.7442 -0.96875,1.125 l -12.21875,-7.03125 -39.6875,0 0,31.0625 -53.8125,-31.0625 -13.78125,0 0,13.28125 -19.0625,-11 c -0.18201,-0.10912 -0.37672,-0.20884 -0.5625,-0.3125 -0.12673,-0.0708 -0.24652,-0.15048 -0.375,-0.21875 -0.2523,-0.13394 -0.49093,-0.25085 -0.75,-0.375 -0.0618,-0.0297 -0.12527,-0.0646 -0.1875,-0.0937 -0.41398,-0.19321 -0.85024,-0.36268 -1.28125,-0.53125 -0.2471,-0.0968 -0.49729,-0.19259 -0.75,-0.28125 -0.35051,-0.12297 -0.7012,-0.23646 -1.0625,-0.34375 -0.18353,-0.0546 -0.37619,-0.10569 -0.5625,-0.15625 -0.17797,-0.0482 -0.35075,-0.11176 -0.53125,-0.15625 -0.0606,-0.015 -0.12658,-0.0167 -0.1875,-0.0312 -0.50392,-0.12069 -1.00777,-0.22005 -1.53125,-0.3125 -0.0433,-0.008 -0.0816,-0.0238 -0.125,-0.0312 -0.13287,-0.0227 -0.27212,-0.0415 -0.40625,-0.0625 -0.0399,-0.006 -0.085,0.006 -0.125,0 -0.62303,-0.0945 -1.25627,-0.19411 -1.90625,-0.25 -0.28732,-0.0247 -0.58244,-0.0453 -0.875,-0.0625 -0.0613,-0.004 -0.12595,0.003 -0.1875,0 -0.60635,-0.0319 -1.21497,-0.0625 -1.84375,-0.0625 -2.44142,3e-5 -4.7277,0.26706 -6.84375,0.78125 -0.70535,0.1714 -1.39327,0.36495 -2.0625,0.59375 -2.67692,0.9152 -5.05665,2.28584 -7.15625,4.125 -2.88696,2.50655 -4.78129,5.52226 -5.6875,9.0625 -0.0824,0.32184 -0.15282,0.66967 -0.21875,1 -0.26373,1.3213 -0.40625,2.69956 -0.40625,4.15625 0,0.73222 0.0367,1.43369 0.0937,2.125 0.0484,0.58735 0.12908,1.16088 0.21875,1.71875 0.0592,0.36434 0.14176,0.71076 0.21875,1.0625 0.0612,0.28316 0.11483,0.56871 0.1875,0.84375 0.10693,0.39988 0.21252,0.80484 0.34375,1.1875 0.0424,0.12487 0.08,0.25196 0.125,0.375 0.14916,0.4041 0.32298,0.80312 0.5,1.1875 0.0194,0.0425 0.0428,0.0828 0.0625,0.125 0.16524,0.3508 0.34258,0.66578 0.53125,1 0.0688,0.12285 0.11554,0.25438 0.1875,0.375 0.19956,0.33242 0.4327,0.65328 0.65625,0.96875 0.17239,0.24422 0.34437,0.48467 0.53125,0.71875 0.23616,0.2958 0.45941,0.59538 0.71875,0.875 l -21.34375,-12.34375 c -0.2089,-0.12061 -0.40849,-0.23617 -0.625,-0.34375 -0.0298,-0.0149 -0.0638,-0.0166 -0.0937,-0.0312 -0.0628,-0.0305 -0.12407,-0.0643 -0.1875,-0.0937 -0.18878,-0.0881 -0.36828,-0.17168 -0.5625,-0.25 -0.1596,-0.0642 -0.33667,-0.12989 -0.5,-0.1875 -0.10079,-0.0354 -0.21032,-0.0609 -0.3125,-0.0937 -0.37531,-0.12148 -0.76203,-0.2249 -1.15625,-0.3125 -0.16108,-0.0354 -0.3358,-0.064 -0.5,-0.0937 -0.34668,-0.0631 -0.70202,-0.11852 -1.0625,-0.15625 -0.53092,-0.0556 -1.06458,-0.0937 -1.625,-0.0937 -2.6693,5e-5 -5.06903,0.75396 -7.25,2.21875 -0.26856,0.18311 -0.52287,0.36097 -0.78125,0.5625 -0.0296,0.0226 -0.0643,0.0397 -0.0937,0.0625 -0.22903,0.18121 -0.46653,0.39797 -0.6875,0.59375 -0.0396,0.035 -0.0857,0.0582 -0.125,0.0937 l -4.375,-2.53125 -12.84375,0 0,10.8125 -16.125,-9.3125 c -0.0838,-0.0509 -0.16517,-0.1069 -0.25,-0.15625 -0.19276,-0.11129 -0.3956,-0.2091 -0.59375,-0.3125 -0.28757,-0.15006 -0.57608,-0.30409 -0.875,-0.4375 -0.21638,-0.0972 -0.43387,-0.19285 -0.65625,-0.28125 -0.0827,-0.0327 -0.16647,-0.0623 -0.25,-0.0937 -0.29008,-0.10989 -0.57489,-0.21734 -0.875,-0.3125 -0.019,-0.006 -0.0434,0.006 -0.0625,0 -0.19743,-0.0618 -0.39199,-0.132 -0.59375,-0.1875 -0.12473,-0.0342 -0.24863,-0.062 -0.375,-0.0937 -0.0501,-0.0126 -0.10591,-0.019 -0.15625,-0.0312 -0.28331,-0.0686 -0.58354,-0.13088 -0.875,-0.1875 -0.1243,-0.0242 -0.2492,-0.0404 -0.375,-0.0625 -0.41896,-0.0734 -0.8456,-0.13843 -1.28125,-0.1875 -0.33012,-0.0372 -0.66028,-0.0706 -1,-0.0937 -0.11688,-0.008 -0.22573,-0.0249 -0.34375,-0.0312 -0.0721,-0.004 -0.14625,0.003 -0.21875,0 -0.37709,-0.0167 -0.76766,-0.0312 -1.15625,-0.0312 -0.41911,0 -0.84259,0.0116 -1.25,0.0312 -0.45067,0.0217 -0.9074,0.0481 -1.34375,0.0937 -1.06245,0.11289 -2.08503,0.30698 -3.0625,0.5625 -0.56743,0.14705 -1.11741,0.33633 -1.65625,0.53125 -1.11764,0.40777 -2.19315,0.88586 -3.1875,1.5 -0.11576,0.0712 -0.22966,0.1448 -0.34375,0.21875 -0.59665,0.38865 -1.16781,0.84748 -1.71875,1.3125 -1.11491,0.93994 -2.13477,2.02801 -3.0625,3.28125 -0.32585,0.44408 -0.61064,0.90729 -0.90625,1.375 -0.15818,0.24912 -0.31871,0.49412 -0.46875,0.75 -0.11434,0.19618 -0.23428,0.39364 -0.34375,0.59375 -0.18546,0.33681 -0.35939,0.68346 -0.53125,1.03125 -0.21489,0.43487 -0.43142,0.89205 -0.625,1.34375 l -17.6875,-10.21875 -0.34375,-0.21875 -0.46875,-0.28125 c -0.008,-0.004 -0.0236,0.004 -0.0312,0 -2.18104,-1.26223 -4.67832,-1.90622 -7.5,-1.90625 -2.37633,5e-5 -4.45966,0.58079 -6.25,1.6875 -1.41384,0.87404 -2.66919,2.06894 -3.78125,3.53125 l -1.09375,-0.625 -0.375,-3.59375 -5.8125,0 -27.562496,-15.90625 c -0.37735,-0.21786 -0.76497,-0.39726 -1.15625,-0.59375 -0.31887,-0.16012 -0.64065,-0.32277 -0.96875,-0.46875 -0.0508,-0.0226 -0.10525,-0.0403 -0.15625,-0.0625 -0.26891,-0.11805 -0.53749,-0.23498 -0.8125,-0.34375 -0.11186,-0.0439 -0.23087,-0.0826 -0.34375,-0.125 -0.39254,-0.1484 -0.78275,-0.27642 -1.1875,-0.40625 -0.33947,-0.10822 -0.68319,-0.21738 -1.03125,-0.3125 -0.0733,-0.02 -0.1451,-0.043 -0.21875,-0.0625 -0.19867,-0.053 -0.39231,-0.10744 -0.59375,-0.15625 -0.21667,-0.0519 -0.43639,-0.10922 -0.65625,-0.15625 -0.36813,-0.0795 -0.74788,-0.15287 -1.125,-0.21875 -0.0621,-0.0107 -0.12516,-0.0209 -0.1875,-0.0312 -1.15157,-0.1935 -2.35895,-0.30772 -3.59375,-0.375 -0.18419,-0.01 -0.37649,-0.0242 -0.5625,-0.0312 -0.47808,-0.0185 -0.94719,-0.0312 -1.4375,-0.0312 -0.49032,0 -0.95952,-0.0186 -1.4375,0 z"
         style="font-size:120px;font-style:normal;font-variant:normal;font-weight:normal;font-stretch:normal;text-align:start;line-height:110.00000238000001218%;letter-spacing:0px;word-spacing:0px;writing-mode:lr-tb;text-anchor:start;opacity:0.1;fill:#000000;fill-opacity:1;stroke:none;filter:url(#filter20433);font-family:Roboto;-inkscape-font-specification:Roboto" />
      <g
         id="g20418">
        <text
           xml:space="preserve"
           style="font-size:100px;font-style:normal;font-variant:normal;font-weight:bold;font-stretch:condensed;text-align:start;line-height:125%;letter-spacing:0px;word-spacing:0px;writing-mode:lr-tb;text-anchor:start;fill:#ffffff;fill-opacity:1;stroke:none;font-family:Roboto;-inkscape-font-specification:Roboto Bold Condensed"
           x="40.074203"
           y="683.02893"
           id="text3008"
           sodipodi:linespacing="125%"><tspan
             sodipodi:role="line"
             id="tspan3010"
             x="40.074203"
             y="683.02893"
             dx="0 0 0 0 0 0 0 -3.1191244">OpenSL ES</tspan></text>
        <text
           sodipodi:linespacing="110%"
           id="text3009"
           y="834.98834"
           x="86.503021"
           style="font-size:120px;font-style:normal;font-variant:normal;font-weight:normal;font-stretch:normal;text-align:start;line-height:110.00000238%;letter-spacing:0px;word-spacing:0px;writing-mode:lr-tb;text-anchor:start;fill:#ffffff;fill-opacity:1;stroke:none;font-family:Roboto;-inkscape-font-specification:Roboto"
           xml:space="preserve"><tspan
             y="834.98834"
             x="86.503021"
             id="tspan3011"
             sodipodi:role="line"
             style="font-size:120px;font-style:normal;font-variant:normal;font-weight:normal;font-stretch:normal;text-align:start;line-height:110.00000238%;writing-mode:lr-tb;text-anchor:start;font-family:Roboto;-inkscape-font-specification:Roboto">Media</tspan><tspan
             y="966.98834"
             x="86.503021"
             sodipodi:role="line"
             id="tspan3013"
             style="font-size:120px;font-style:normal;font-variant:normal;font-weight:normal;font-stretch:normal;text-align:start;line-height:110.00000238%;writing-mode:lr-tb;text-anchor:start;font-family:Roboto;-inkscape-font-specification:Roboto">Player</tspan></text>
      </g>
      <rect
         style="color:#000000;fill:none;stroke:none;stroke-width:5;marker:none;visibility:visible;display:inline;overflow:visible;enable-background:accumulate"
         id="rect3783"
         width="512"
         height="512"
         x="0"
         y="540.36218"
         rx="0"
         ry="0" />
    </g>
    <g
       style="font-size:100px;font-style:normal;font-variant:normal;font-weight:bold;font-stretch:condensed;text-align:start;line-height:125%;letter-spacing:0px;word-spacing:0px;writing-mode:lr-tb;text-anchor:start;fill:#ffffff;fill-opacity:1;stroke:none;font-family:Roboto;-inkscape-font-specification:Roboto Bold Condensed"
       id="text3799" />
    <g
       id="text17766"
       style="font-size:100px;font-style:normal;font-variant:normal;font-weight:bold;font-stretch:condensed;text-align:start;line-height:125%;letter-spacing:0px;word-spacing:0px;writing-mode:lr-tb;text-anchor:start;fill:#550000;fill-opacity:1;stroke:none;font-family:Roboto;-inkscape-font-specification:Roboto Bold Condensed" />
  </g>
</svg>
